# xmcd
#
# Track frame offsets:
#	150
#	17700
#	31688
#	46166
#	61351
#	75119
#	89489
#	105092
#	120842
#	139845
#	159373
#	178301
#	191176
#	212174
#	225024
#	241867
#	258190
#	271403
#	292023
#	306158
#
# Disc length: 4285 seconds
#
# Revision: 1
# Processed by: cddbd v1.5.2PL0 Copyright (c) Steve Scherf et al.
# Submitted via: audiograbber 1.83.01
#
DISCID=fa10bb14
DTITLE=Various Artist - Halland's Country Hits Volume 1
DYEAR=1900
DGENRE=
TTITLE0=Collin Raye - Love, Me
TTITLE1=Collin Raye - Somebody Else's Moon
TTITLE2=Collin Raye - That Was A River
TTITLE3=Mike Reid - I'll Stop Loving You
TTITLE4=Mike Reid - Till You Were Gone
TTITLE5=Mike Reid - Walk On Faith
TTITLE6=Restless Heart - A Tender Lie
TTITLE7=Restless Heart - Big Dreams In A Small Town
TTITLE8=Restless Heart - Dancy's Dream
TTITLE9=Restless Heart - Fast Movin' Train
TTITLE10=Restless Heart - I'll Still Be Loving You
TTITLE11=Restless Heart - Mending Fences
TTITLE12=Restless Heart - The Blueset Eyes In Texas
TTITLE13=Restless Heart - We Got The Love
TTITLE14=Restless Heart - Wheels
TTITLE15=Restless Heart - When She Cries
TTITLE16=Restless Heart - Why Does It Have To Be (Right...)
TTITLE17=Lionel Richie With Alabama - Deep River Woman
TTITLE18=Kenny Rogers - If You Want To Find Love
TTITLE19=Sawyer Brown - All These Years
EXTD=
EXTT0=
EXTT1=
EXTT2=
EXTT3=
EXTT4=
EXTT5=
EXTT6=
EXTT7=
EXTT8=
EXTT9=
EXTT10=
EXTT11=
EXTT12=
EXTT13=
EXTT14=
EXTT15=
EXTT16=
EXTT17=
EXTT18=
EXTT19=
PLAYORDER=
